<?xml version="1.0"?>
<svg xmlns="http://www.w3.org/2000/svg" xmlns:xlink="http://www.w3.org/1999/xlink" version="1.1" viewBox="0 0 19.844 19.844" enable-background="new 0 0 19.844 19.844" width="512px" height="512px" class=""><g><g>
    <path d="m3,7.422h-3v11h3c0.552,0 1-0.448 1-1v-9c0-0.552-0.448-1-1-1z" data-original="#000000" class="active-path" data-old_color="#ff414d" fill="#ff414d"/>
    <path d="m19.755,10.442l-.566-2.262c-0.111-0.445-0.511-0.757-0.97-0.757h-4.819l.366-1.665c0.156-0.706 0.234-1.426 0.234-2.148v-1.188c0-0.552-0.448-1-1-1h-1c-0.552,0-1,0.448-1,1v1c0,2.761-2.239,5-5,5v9h2.292c0.466,0 0.925,0.108 1.342,0.317l.733,.367c0.417,0.208 0.876,0.317 1.342,0.317h4.632c0.4,0 0.762-0.238 0.919-0.606l2.342-5.465c0.258-0.604 0.312-1.274 0.153-1.91z" data-original="#000000" class="active-path" data-old_color="#ff414d" fill="#ff414d"/>
  </g></g> </svg>
